<mxfile host="app.diagrams.net" modified="2023-11-06T12:55:49.846Z" agent="Mozilla/5.0 (Windows NT 10.0; Win64; x64) AppleWebKit/537.36 (KHTML, like Gecko) Chrome/119.0.0.0 Safari/537.36" etag="v7IwVLyEFmiY3iUz9V41" version="22.0.8" type="device" pages="5">
  <diagram id="C5RBs43oDa-KdzZeNtuy" name="Page-1">
    <mxGraphModel dx="910" dy="499" grid="1" gridSize="10" guides="1" tooltips="1" connect="1" arrows="1" fold="1" page="1" pageScale="1" pageWidth="827" pageHeight="1169" math="0" shadow="0">
      <root>
        <mxCell id="WIyWlLk6GJQsqaUBKTNV-0" />
        <mxCell id="WIyWlLk6GJQsqaUBKTNV-1" parent="WIyWlLk6GJQsqaUBKTNV-0" />
        <mxCell id="10-OtBAC5O08PnO-MTqW-2" style="edgeStyle=orthogonalEdgeStyle;rounded=0;orthogonalLoop=1;jettySize=auto;html=1;entryX=0.5;entryY=0;entryDx=0;entryDy=0;" parent="WIyWlLk6GJQsqaUBKTNV-1" source="10-OtBAC5O08PnO-MTqW-0" target="10-OtBAC5O08PnO-MTqW-1" edge="1">
          <mxGeometry relative="1" as="geometry" />
        </mxCell>
        <mxCell id="10-OtBAC5O08PnO-MTqW-0" value="start" style="ellipse;whiteSpace=wrap;html=1;" parent="WIyWlLk6GJQsqaUBKTNV-1" vertex="1">
          <mxGeometry x="294" y="100" width="120" height="80" as="geometry" />
        </mxCell>
        <mxCell id="10-OtBAC5O08PnO-MTqW-4" style="edgeStyle=orthogonalEdgeStyle;rounded=0;orthogonalLoop=1;jettySize=auto;html=1;entryX=0.5;entryY=0;entryDx=0;entryDy=0;" parent="WIyWlLk6GJQsqaUBKTNV-1" source="10-OtBAC5O08PnO-MTqW-1" target="10-OtBAC5O08PnO-MTqW-3" edge="1">
          <mxGeometry relative="1" as="geometry" />
        </mxCell>
        <mxCell id="10-OtBAC5O08PnO-MTqW-1" value="min a,b,c" style="rounded=0;whiteSpace=wrap;html=1;" parent="WIyWlLk6GJQsqaUBKTNV-1" vertex="1">
          <mxGeometry x="294" y="230" width="120" height="60" as="geometry" />
        </mxCell>
        <mxCell id="10-OtBAC5O08PnO-MTqW-6" style="edgeStyle=orthogonalEdgeStyle;rounded=0;orthogonalLoop=1;jettySize=auto;html=1;exitX=0.5;exitY=1;exitDx=0;exitDy=0;entryX=0.5;entryY=0;entryDx=0;entryDy=0;" parent="WIyWlLk6GJQsqaUBKTNV-1" source="10-OtBAC5O08PnO-MTqW-3" target="10-OtBAC5O08PnO-MTqW-5" edge="1">
          <mxGeometry relative="1" as="geometry" />
        </mxCell>
        <mxCell id="10-OtBAC5O08PnO-MTqW-3" value="a,b,c" style="shape=parallelogram;perimeter=parallelogramPerimeter;whiteSpace=wrap;html=1;fixedSize=1;" parent="WIyWlLk6GJQsqaUBKTNV-1" vertex="1">
          <mxGeometry x="294" y="340" width="120" height="60" as="geometry" />
        </mxCell>
        <mxCell id="10-OtBAC5O08PnO-MTqW-8" style="edgeStyle=orthogonalEdgeStyle;rounded=0;orthogonalLoop=1;jettySize=auto;html=1;exitX=0.5;exitY=1;exitDx=0;exitDy=0;entryX=0.5;entryY=0;entryDx=0;entryDy=0;" parent="WIyWlLk6GJQsqaUBKTNV-1" source="10-OtBAC5O08PnO-MTqW-5" target="10-OtBAC5O08PnO-MTqW-7" edge="1">
          <mxGeometry relative="1" as="geometry" />
        </mxCell>
        <mxCell id="10-OtBAC5O08PnO-MTqW-5" value="min=a" style="rounded=0;whiteSpace=wrap;html=1;" parent="WIyWlLk6GJQsqaUBKTNV-1" vertex="1">
          <mxGeometry x="294" y="440" width="120" height="60" as="geometry" />
        </mxCell>
        <mxCell id="10-OtBAC5O08PnO-MTqW-10" style="edgeStyle=orthogonalEdgeStyle;rounded=0;orthogonalLoop=1;jettySize=auto;html=1;exitX=0.5;exitY=1;exitDx=0;exitDy=0;entryX=0.5;entryY=0;entryDx=0;entryDy=0;" parent="WIyWlLk6GJQsqaUBKTNV-1" source="10-OtBAC5O08PnO-MTqW-7" target="10-OtBAC5O08PnO-MTqW-9" edge="1">
          <mxGeometry relative="1" as="geometry" />
        </mxCell>
        <mxCell id="10-OtBAC5O08PnO-MTqW-7" value="min&amp;gt;b" style="rhombus;whiteSpace=wrap;html=1;" parent="WIyWlLk6GJQsqaUBKTNV-1" vertex="1">
          <mxGeometry x="314" y="560" width="80" height="80" as="geometry" />
        </mxCell>
        <mxCell id="10-OtBAC5O08PnO-MTqW-12" style="edgeStyle=orthogonalEdgeStyle;rounded=0;orthogonalLoop=1;jettySize=auto;html=1;exitX=0.5;exitY=1;exitDx=0;exitDy=0;entryX=0.5;entryY=0;entryDx=0;entryDy=0;" parent="WIyWlLk6GJQsqaUBKTNV-1" source="10-OtBAC5O08PnO-MTqW-9" target="10-OtBAC5O08PnO-MTqW-11" edge="1">
          <mxGeometry relative="1" as="geometry" />
        </mxCell>
        <mxCell id="10-OtBAC5O08PnO-MTqW-17" style="edgeStyle=orthogonalEdgeStyle;rounded=0;orthogonalLoop=1;jettySize=auto;html=1;exitX=1;exitY=0.5;exitDx=0;exitDy=0;entryX=1;entryY=0.5;entryDx=0;entryDy=0;" parent="WIyWlLk6GJQsqaUBKTNV-1" source="10-OtBAC5O08PnO-MTqW-9" target="10-OtBAC5O08PnO-MTqW-15" edge="1">
          <mxGeometry relative="1" as="geometry">
            <mxPoint x="460" y="1070" as="targetPoint" />
            <Array as="points">
              <mxPoint x="461" y="700" />
              <mxPoint x="461" y="1070" />
            </Array>
          </mxGeometry>
        </mxCell>
        <mxCell id="10-OtBAC5O08PnO-MTqW-9" value="min=b" style="rounded=0;whiteSpace=wrap;html=1;" parent="WIyWlLk6GJQsqaUBKTNV-1" vertex="1">
          <mxGeometry x="294" y="670" width="120" height="60" as="geometry" />
        </mxCell>
        <mxCell id="10-OtBAC5O08PnO-MTqW-14" style="edgeStyle=orthogonalEdgeStyle;rounded=0;orthogonalLoop=1;jettySize=auto;html=1;exitX=0.5;exitY=1;exitDx=0;exitDy=0;entryX=0.5;entryY=0;entryDx=0;entryDy=0;" parent="WIyWlLk6GJQsqaUBKTNV-1" source="10-OtBAC5O08PnO-MTqW-11" target="10-OtBAC5O08PnO-MTqW-13" edge="1">
          <mxGeometry relative="1" as="geometry" />
        </mxCell>
        <mxCell id="10-OtBAC5O08PnO-MTqW-11" value="min&amp;gt;c" style="rhombus;whiteSpace=wrap;html=1;" parent="WIyWlLk6GJQsqaUBKTNV-1" vertex="1">
          <mxGeometry x="314" y="780" width="80" height="80" as="geometry" />
        </mxCell>
        <mxCell id="10-OtBAC5O08PnO-MTqW-16" style="edgeStyle=orthogonalEdgeStyle;rounded=0;orthogonalLoop=1;jettySize=auto;html=1;exitX=0.5;exitY=1;exitDx=0;exitDy=0;entryX=0.5;entryY=0;entryDx=0;entryDy=0;" parent="WIyWlLk6GJQsqaUBKTNV-1" source="10-OtBAC5O08PnO-MTqW-13" target="10-OtBAC5O08PnO-MTqW-15" edge="1">
          <mxGeometry relative="1" as="geometry" />
        </mxCell>
        <mxCell id="10-OtBAC5O08PnO-MTqW-13" value="min=c" style="rounded=0;whiteSpace=wrap;html=1;" parent="WIyWlLk6GJQsqaUBKTNV-1" vertex="1">
          <mxGeometry x="294" y="920" width="120" height="60" as="geometry" />
        </mxCell>
        <mxCell id="10-OtBAC5O08PnO-MTqW-19" style="edgeStyle=orthogonalEdgeStyle;rounded=0;orthogonalLoop=1;jettySize=auto;html=1;exitX=0.5;exitY=1;exitDx=0;exitDy=0;entryX=0.5;entryY=0;entryDx=0;entryDy=0;" parent="WIyWlLk6GJQsqaUBKTNV-1" source="10-OtBAC5O08PnO-MTqW-15" target="10-OtBAC5O08PnO-MTqW-18" edge="1">
          <mxGeometry relative="1" as="geometry" />
        </mxCell>
        <mxCell id="10-OtBAC5O08PnO-MTqW-15" value="min" style="shape=parallelogram;perimeter=parallelogramPerimeter;whiteSpace=wrap;html=1;fixedSize=1;" parent="WIyWlLk6GJQsqaUBKTNV-1" vertex="1">
          <mxGeometry x="294" y="1040" width="120" height="60" as="geometry" />
        </mxCell>
        <mxCell id="10-OtBAC5O08PnO-MTqW-18" value="end" style="ellipse;whiteSpace=wrap;html=1;" parent="WIyWlLk6GJQsqaUBKTNV-1" vertex="1">
          <mxGeometry x="294" y="1160" width="120" height="80" as="geometry" />
        </mxCell>
      </root>
    </mxGraphModel>
  </diagram>
  <diagram id="-dOVab2CZBzzemooIJ5G" name="Trang-2">
    <mxGraphModel dx="910" dy="499" grid="1" gridSize="10" guides="1" tooltips="1" connect="1" arrows="1" fold="1" page="1" pageScale="1" pageWidth="827" pageHeight="1169" math="0" shadow="0">
      <root>
        <mxCell id="0" />
        <mxCell id="1" parent="0" />
        <mxCell id="s5jpIEb6i7NEmXtadU4Q-3" style="edgeStyle=orthogonalEdgeStyle;rounded=0;orthogonalLoop=1;jettySize=auto;html=1;exitX=0.5;exitY=1;exitDx=0;exitDy=0;entryX=0.5;entryY=0;entryDx=0;entryDy=0;" parent="1" source="s5jpIEb6i7NEmXtadU4Q-1" target="s5jpIEb6i7NEmXtadU4Q-2" edge="1">
          <mxGeometry relative="1" as="geometry" />
        </mxCell>
        <mxCell id="s5jpIEb6i7NEmXtadU4Q-1" value="start" style="ellipse;whiteSpace=wrap;html=1;" parent="1" vertex="1">
          <mxGeometry x="340" y="80" width="120" height="80" as="geometry" />
        </mxCell>
        <mxCell id="Davyd7Tc9z54jFo9ZQJ6-2" style="edgeStyle=orthogonalEdgeStyle;rounded=0;orthogonalLoop=1;jettySize=auto;html=1;exitX=0.5;exitY=1;exitDx=0;exitDy=0;" edge="1" parent="1" source="s5jpIEb6i7NEmXtadU4Q-2" target="Davyd7Tc9z54jFo9ZQJ6-1">
          <mxGeometry relative="1" as="geometry" />
        </mxCell>
        <mxCell id="s5jpIEb6i7NEmXtadU4Q-2" value="a,b" style="shape=parallelogram;perimeter=parallelogramPerimeter;whiteSpace=wrap;html=1;fixedSize=1;" parent="1" vertex="1">
          <mxGeometry x="340" y="210" width="120" height="60" as="geometry" />
        </mxCell>
        <mxCell id="Davyd7Tc9z54jFo9ZQJ6-9" style="edgeStyle=orthogonalEdgeStyle;rounded=0;orthogonalLoop=1;jettySize=auto;html=1;exitX=0.5;exitY=1;exitDx=0;exitDy=0;entryX=0.5;entryY=0;entryDx=0;entryDy=0;" edge="1" parent="1" source="Davyd7Tc9z54jFo9ZQJ6-1" target="Davyd7Tc9z54jFo9ZQJ6-3">
          <mxGeometry relative="1" as="geometry" />
        </mxCell>
        <mxCell id="acYKQD9-qaQIiVmN5rNk-4" style="edgeStyle=orthogonalEdgeStyle;rounded=0;orthogonalLoop=1;jettySize=auto;html=1;exitX=1;exitY=0.5;exitDx=0;exitDy=0;entryX=0;entryY=0.5;entryDx=0;entryDy=0;" edge="1" parent="1" source="Davyd7Tc9z54jFo9ZQJ6-1" target="Davyd7Tc9z54jFo9ZQJ6-6">
          <mxGeometry relative="1" as="geometry" />
        </mxCell>
        <mxCell id="Davyd7Tc9z54jFo9ZQJ6-1" value="a=0" style="rhombus;whiteSpace=wrap;html=1;" vertex="1" parent="1">
          <mxGeometry x="360" y="310" width="80" height="80" as="geometry" />
        </mxCell>
        <mxCell id="acYKQD9-qaQIiVmN5rNk-2" style="edgeStyle=orthogonalEdgeStyle;rounded=0;orthogonalLoop=1;jettySize=auto;html=1;exitX=0.5;exitY=1;exitDx=0;exitDy=0;" edge="1" parent="1" source="Davyd7Tc9z54jFo9ZQJ6-3" target="Davyd7Tc9z54jFo9ZQJ6-4">
          <mxGeometry relative="1" as="geometry" />
        </mxCell>
        <mxCell id="Davyd7Tc9z54jFo9ZQJ6-3" value="x=-b/a" style="rounded=0;whiteSpace=wrap;html=1;" vertex="1" parent="1">
          <mxGeometry x="340" y="440" width="120" height="60" as="geometry" />
        </mxCell>
        <mxCell id="acYKQD9-qaQIiVmN5rNk-3" style="edgeStyle=orthogonalEdgeStyle;rounded=0;orthogonalLoop=1;jettySize=auto;html=1;exitX=0.5;exitY=1;exitDx=0;exitDy=0;" edge="1" parent="1" source="Davyd7Tc9z54jFo9ZQJ6-4" target="Davyd7Tc9z54jFo9ZQJ6-5">
          <mxGeometry relative="1" as="geometry" />
        </mxCell>
        <mxCell id="Davyd7Tc9z54jFo9ZQJ6-4" value="x" style="shape=parallelogram;perimeter=parallelogramPerimeter;whiteSpace=wrap;html=1;fixedSize=1;" vertex="1" parent="1">
          <mxGeometry x="340" y="555" width="120" height="60" as="geometry" />
        </mxCell>
        <mxCell id="Davyd7Tc9z54jFo9ZQJ6-5" value="end" style="ellipse;whiteSpace=wrap;html=1;" vertex="1" parent="1">
          <mxGeometry x="340" y="660" width="120" height="80" as="geometry" />
        </mxCell>
        <mxCell id="acYKQD9-qaQIiVmN5rNk-9" style="edgeStyle=orthogonalEdgeStyle;rounded=0;orthogonalLoop=1;jettySize=auto;html=1;exitX=1;exitY=0.5;exitDx=0;exitDy=0;" edge="1" parent="1" source="Davyd7Tc9z54jFo9ZQJ6-6" target="Davyd7Tc9z54jFo9ZQJ6-8">
          <mxGeometry relative="1" as="geometry" />
        </mxCell>
        <mxCell id="acYKQD9-qaQIiVmN5rNk-11" style="edgeStyle=orthogonalEdgeStyle;rounded=0;orthogonalLoop=1;jettySize=auto;html=1;exitX=0.5;exitY=1;exitDx=0;exitDy=0;" edge="1" parent="1" source="Davyd7Tc9z54jFo9ZQJ6-6" target="Davyd7Tc9z54jFo9ZQJ6-7">
          <mxGeometry relative="1" as="geometry" />
        </mxCell>
        <mxCell id="Davyd7Tc9z54jFo9ZQJ6-6" value="b=0" style="rhombus;whiteSpace=wrap;html=1;" vertex="1" parent="1">
          <mxGeometry x="570" y="310" width="80" height="80" as="geometry" />
        </mxCell>
        <mxCell id="Davyd7Tc9z54jFo9ZQJ6-7" value="vo nghiem" style="shape=parallelogram;perimeter=parallelogramPerimeter;whiteSpace=wrap;html=1;fixedSize=1;" vertex="1" parent="1">
          <mxGeometry x="550" y="480" width="120" height="60" as="geometry" />
        </mxCell>
        <mxCell id="acYKQD9-qaQIiVmN5rNk-13" style="edgeStyle=orthogonalEdgeStyle;rounded=0;orthogonalLoop=1;jettySize=auto;html=1;exitX=0.5;exitY=1;exitDx=0;exitDy=0;entryX=1;entryY=0.5;entryDx=0;entryDy=0;" edge="1" parent="1" source="Davyd7Tc9z54jFo9ZQJ6-8" target="Davyd7Tc9z54jFo9ZQJ6-5">
          <mxGeometry relative="1" as="geometry" />
        </mxCell>
        <mxCell id="Davyd7Tc9z54jFo9ZQJ6-8" value="vo so nghiem" style="shape=parallelogram;perimeter=parallelogramPerimeter;whiteSpace=wrap;html=1;fixedSize=1;" vertex="1" parent="1">
          <mxGeometry x="707" y="320" width="120" height="60" as="geometry" />
        </mxCell>
        <mxCell id="acYKQD9-qaQIiVmN5rNk-1" value="sai" style="text;html=1;align=center;verticalAlign=middle;resizable=0;points=[];autosize=1;strokeColor=none;fillColor=none;" vertex="1" parent="1">
          <mxGeometry x="380" y="398" width="40" height="30" as="geometry" />
        </mxCell>
        <mxCell id="acYKQD9-qaQIiVmN5rNk-5" value="dung" style="text;html=1;align=center;verticalAlign=middle;resizable=0;points=[];autosize=1;strokeColor=none;fillColor=none;" vertex="1" parent="1">
          <mxGeometry x="470" y="320" width="50" height="30" as="geometry" />
        </mxCell>
        <mxCell id="acYKQD9-qaQIiVmN5rNk-7" value="dung" style="text;html=1;align=center;verticalAlign=middle;resizable=0;points=[];autosize=1;strokeColor=none;fillColor=none;" vertex="1" parent="1">
          <mxGeometry x="657" y="320" width="50" height="30" as="geometry" />
        </mxCell>
        <mxCell id="acYKQD9-qaQIiVmN5rNk-10" value="sai" style="text;html=1;align=center;verticalAlign=middle;resizable=0;points=[];autosize=1;strokeColor=none;fillColor=none;" vertex="1" parent="1">
          <mxGeometry x="590" y="420" width="40" height="30" as="geometry" />
        </mxCell>
        <mxCell id="acYKQD9-qaQIiVmN5rNk-12" style="edgeStyle=orthogonalEdgeStyle;rounded=0;orthogonalLoop=1;jettySize=auto;html=1;exitX=0.5;exitY=1;exitDx=0;exitDy=0;entryX=0.986;entryY=0.323;entryDx=0;entryDy=0;entryPerimeter=0;" edge="1" parent="1" source="Davyd7Tc9z54jFo9ZQJ6-7" target="Davyd7Tc9z54jFo9ZQJ6-5">
          <mxGeometry relative="1" as="geometry" />
        </mxCell>
      </root>
    </mxGraphModel>
  </diagram>
  <diagram id="dJPKwacZmwu8Lyt3VZN7" name="Trang-3">
    <mxGraphModel dx="910" dy="499" grid="1" gridSize="10" guides="1" tooltips="1" connect="1" arrows="1" fold="1" page="1" pageScale="1" pageWidth="827" pageHeight="1169" math="0" shadow="0">
      <root>
        <mxCell id="0" />
        <mxCell id="1" parent="0" />
        <mxCell id="8eeEnsSjjjsD26K58JrS-3" style="edgeStyle=orthogonalEdgeStyle;rounded=0;orthogonalLoop=1;jettySize=auto;html=1;exitX=0.5;exitY=1;exitDx=0;exitDy=0;" edge="1" parent="1" source="8eeEnsSjjjsD26K58JrS-1" target="8eeEnsSjjjsD26K58JrS-2">
          <mxGeometry relative="1" as="geometry" />
        </mxCell>
        <mxCell id="8eeEnsSjjjsD26K58JrS-1" value="start" style="ellipse;whiteSpace=wrap;html=1;" vertex="1" parent="1">
          <mxGeometry x="294" y="80" width="120" height="80" as="geometry" />
        </mxCell>
        <mxCell id="8eeEnsSjjjsD26K58JrS-6" style="edgeStyle=orthogonalEdgeStyle;rounded=0;orthogonalLoop=1;jettySize=auto;html=1;exitX=0.5;exitY=1;exitDx=0;exitDy=0;entryX=0.5;entryY=0;entryDx=0;entryDy=0;" edge="1" parent="1" source="8eeEnsSjjjsD26K58JrS-2" target="8eeEnsSjjjsD26K58JrS-4">
          <mxGeometry relative="1" as="geometry" />
        </mxCell>
        <mxCell id="8eeEnsSjjjsD26K58JrS-2" value="Nhap a,b" style="shape=parallelogram;perimeter=parallelogramPerimeter;whiteSpace=wrap;html=1;fixedSize=1;" vertex="1" parent="1">
          <mxGeometry x="294" y="200" width="120" height="60" as="geometry" />
        </mxCell>
        <mxCell id="8eeEnsSjjjsD26K58JrS-8" style="edgeStyle=orthogonalEdgeStyle;rounded=0;orthogonalLoop=1;jettySize=auto;html=1;exitX=1;exitY=0.5;exitDx=0;exitDy=0;entryX=0;entryY=0.5;entryDx=0;entryDy=0;" edge="1" parent="1" source="8eeEnsSjjjsD26K58JrS-4" target="8eeEnsSjjjsD26K58JrS-7">
          <mxGeometry relative="1" as="geometry" />
        </mxCell>
        <mxCell id="8eeEnsSjjjsD26K58JrS-11" style="edgeStyle=orthogonalEdgeStyle;rounded=0;orthogonalLoop=1;jettySize=auto;html=1;exitX=0.5;exitY=1;exitDx=0;exitDy=0;entryX=0.5;entryY=0;entryDx=0;entryDy=0;" edge="1" parent="1" source="8eeEnsSjjjsD26K58JrS-4" target="8eeEnsSjjjsD26K58JrS-10">
          <mxGeometry relative="1" as="geometry" />
        </mxCell>
        <mxCell id="8eeEnsSjjjsD26K58JrS-4" value="a=0" style="rhombus;whiteSpace=wrap;html=1;" vertex="1" parent="1">
          <mxGeometry x="314" y="300" width="80" height="80" as="geometry" />
        </mxCell>
        <mxCell id="8eeEnsSjjjsD26K58JrS-27" style="edgeStyle=orthogonalEdgeStyle;rounded=0;orthogonalLoop=1;jettySize=auto;html=1;exitX=1;exitY=0.5;exitDx=0;exitDy=0;entryX=1;entryY=0.5;entryDx=0;entryDy=0;" edge="1" parent="1" source="8eeEnsSjjjsD26K58JrS-7" target="8eeEnsSjjjsD26K58JrS-25">
          <mxGeometry relative="1" as="geometry">
            <mxPoint x="760" y="960" as="targetPoint" />
          </mxGeometry>
        </mxCell>
        <mxCell id="8eeEnsSjjjsD26K58JrS-7" value="Phuong trinh bac 1" style="rounded=1;whiteSpace=wrap;html=1;" vertex="1" parent="1">
          <mxGeometry x="500" y="310" width="120" height="60" as="geometry" />
        </mxCell>
        <mxCell id="8eeEnsSjjjsD26K58JrS-9" value="true" style="text;html=1;align=center;verticalAlign=middle;resizable=0;points=[];autosize=1;strokeColor=none;fillColor=none;" vertex="1" parent="1">
          <mxGeometry x="420" y="310" width="40" height="30" as="geometry" />
        </mxCell>
        <mxCell id="8eeEnsSjjjsD26K58JrS-13" style="edgeStyle=orthogonalEdgeStyle;rounded=0;orthogonalLoop=1;jettySize=auto;html=1;exitX=0.5;exitY=1;exitDx=0;exitDy=0;entryX=0.5;entryY=0;entryDx=0;entryDy=0;" edge="1" parent="1" source="8eeEnsSjjjsD26K58JrS-10" target="8eeEnsSjjjsD26K58JrS-12">
          <mxGeometry relative="1" as="geometry" />
        </mxCell>
        <mxCell id="8eeEnsSjjjsD26K58JrS-10" value="d=b*b+4*a*c" style="rounded=0;whiteSpace=wrap;html=1;" vertex="1" parent="1">
          <mxGeometry x="294" y="430" width="120" height="60" as="geometry" />
        </mxCell>
        <mxCell id="8eeEnsSjjjsD26K58JrS-15" style="edgeStyle=orthogonalEdgeStyle;rounded=0;orthogonalLoop=1;jettySize=auto;html=1;exitX=1;exitY=0.5;exitDx=0;exitDy=0;entryX=0;entryY=0.5;entryDx=0;entryDy=0;" edge="1" parent="1" source="8eeEnsSjjjsD26K58JrS-12" target="8eeEnsSjjjsD26K58JrS-14">
          <mxGeometry relative="1" as="geometry" />
        </mxCell>
        <mxCell id="8eeEnsSjjjsD26K58JrS-18" style="edgeStyle=orthogonalEdgeStyle;rounded=0;orthogonalLoop=1;jettySize=auto;html=1;exitX=0.5;exitY=1;exitDx=0;exitDy=0;" edge="1" parent="1" source="8eeEnsSjjjsD26K58JrS-12" target="8eeEnsSjjjsD26K58JrS-17">
          <mxGeometry relative="1" as="geometry" />
        </mxCell>
        <mxCell id="8eeEnsSjjjsD26K58JrS-12" value="d&amp;lt;0" style="rhombus;whiteSpace=wrap;html=1;" vertex="1" parent="1">
          <mxGeometry x="314" y="544.5" width="80" height="80" as="geometry" />
        </mxCell>
        <mxCell id="8eeEnsSjjjsD26K58JrS-28" style="edgeStyle=orthogonalEdgeStyle;rounded=0;orthogonalLoop=1;jettySize=auto;html=1;exitX=1;exitY=0.5;exitDx=0;exitDy=0;" edge="1" parent="1" source="8eeEnsSjjjsD26K58JrS-14">
          <mxGeometry relative="1" as="geometry">
            <mxPoint x="640" y="585" as="targetPoint" />
          </mxGeometry>
        </mxCell>
        <mxCell id="8eeEnsSjjjsD26K58JrS-14" value="Phuong trinh vo nghiem" style="rounded=0;whiteSpace=wrap;html=1;" vertex="1" parent="1">
          <mxGeometry x="470" y="555" width="150" height="60" as="geometry" />
        </mxCell>
        <mxCell id="8eeEnsSjjjsD26K58JrS-16" value="true" style="text;html=1;align=center;verticalAlign=middle;resizable=0;points=[];autosize=1;strokeColor=none;fillColor=none;" vertex="1" parent="1">
          <mxGeometry x="410" y="558" width="40" height="30" as="geometry" />
        </mxCell>
        <mxCell id="8eeEnsSjjjsD26K58JrS-20" style="edgeStyle=orthogonalEdgeStyle;rounded=0;orthogonalLoop=1;jettySize=auto;html=1;exitX=1;exitY=0.5;exitDx=0;exitDy=0;" edge="1" parent="1" source="8eeEnsSjjjsD26K58JrS-17" target="8eeEnsSjjjsD26K58JrS-19">
          <mxGeometry relative="1" as="geometry" />
        </mxCell>
        <mxCell id="8eeEnsSjjjsD26K58JrS-24" style="edgeStyle=orthogonalEdgeStyle;rounded=0;orthogonalLoop=1;jettySize=auto;html=1;exitX=0.5;exitY=1;exitDx=0;exitDy=0;entryX=0.5;entryY=0;entryDx=0;entryDy=0;" edge="1" parent="1" source="8eeEnsSjjjsD26K58JrS-17" target="8eeEnsSjjjsD26K58JrS-23">
          <mxGeometry relative="1" as="geometry" />
        </mxCell>
        <mxCell id="8eeEnsSjjjsD26K58JrS-17" value="d=0" style="rhombus;whiteSpace=wrap;html=1;" vertex="1" parent="1">
          <mxGeometry x="314" y="690" width="80" height="80" as="geometry" />
        </mxCell>
        <mxCell id="8eeEnsSjjjsD26K58JrS-30" style="edgeStyle=orthogonalEdgeStyle;rounded=0;orthogonalLoop=1;jettySize=auto;html=1;exitX=1;exitY=0.5;exitDx=0;exitDy=0;" edge="1" parent="1" source="8eeEnsSjjjsD26K58JrS-19">
          <mxGeometry relative="1" as="geometry">
            <mxPoint x="640" y="730" as="targetPoint" />
          </mxGeometry>
        </mxCell>
        <mxCell id="8eeEnsSjjjsD26K58JrS-19" value="Phuong trinh co ngiem kep x=-b/(2*a)" style="rounded=0;whiteSpace=wrap;html=1;" vertex="1" parent="1">
          <mxGeometry x="420" y="700" width="210" height="60" as="geometry" />
        </mxCell>
        <mxCell id="8eeEnsSjjjsD26K58JrS-21" value="true" style="text;html=1;align=center;verticalAlign=middle;resizable=0;points=[];autosize=1;strokeColor=none;fillColor=none;" vertex="1" parent="1">
          <mxGeometry x="380" y="700" width="40" height="30" as="geometry" />
        </mxCell>
        <mxCell id="8eeEnsSjjjsD26K58JrS-26" style="edgeStyle=orthogonalEdgeStyle;rounded=0;orthogonalLoop=1;jettySize=auto;html=1;exitX=0.5;exitY=1;exitDx=0;exitDy=0;entryX=0.5;entryY=0;entryDx=0;entryDy=0;" edge="1" parent="1" source="8eeEnsSjjjsD26K58JrS-23" target="8eeEnsSjjjsD26K58JrS-25">
          <mxGeometry relative="1" as="geometry" />
        </mxCell>
        <mxCell id="8eeEnsSjjjsD26K58JrS-23" value="phuong trinh co 2 nghiem phan biet&amp;nbsp;&lt;br style=&quot;border-color: var(--border-color);&quot;&gt;x=(-b+sqrt(d))/(2*a)&lt;br style=&quot;border-color: var(--border-color);&quot;&gt;x=(-b-sqrt(d))/(2*a)" style="rounded=0;whiteSpace=wrap;html=1;" vertex="1" parent="1">
          <mxGeometry x="294" y="820" width="120" height="60" as="geometry" />
        </mxCell>
        <mxCell id="8eeEnsSjjjsD26K58JrS-25" value="end" style="ellipse;whiteSpace=wrap;html=1;" vertex="1" parent="1">
          <mxGeometry x="294" y="910" width="120" height="80" as="geometry" />
        </mxCell>
      </root>
    </mxGraphModel>
  </diagram>
  <diagram id="6bGLOPllmDDS333L3WST" name="Trang-4">
    <mxGraphModel dx="910" dy="499" grid="1" gridSize="10" guides="1" tooltips="1" connect="1" arrows="1" fold="1" page="1" pageScale="1" pageWidth="827" pageHeight="1169" math="0" shadow="0">
      <root>
        <mxCell id="0" />
        <mxCell id="1" parent="0" />
        <mxCell id="iDYnWV1wgMR3_WhEjttm-7" style="edgeStyle=orthogonalEdgeStyle;rounded=0;orthogonalLoop=1;jettySize=auto;html=1;exitX=0.5;exitY=1;exitDx=0;exitDy=0;entryX=0.5;entryY=0;entryDx=0;entryDy=0;" edge="1" parent="1" source="iDYnWV1wgMR3_WhEjttm-1" target="iDYnWV1wgMR3_WhEjttm-2">
          <mxGeometry relative="1" as="geometry" />
        </mxCell>
        <mxCell id="iDYnWV1wgMR3_WhEjttm-1" value="start" style="ellipse;whiteSpace=wrap;html=1;" vertex="1" parent="1">
          <mxGeometry x="300" y="60" width="120" height="80" as="geometry" />
        </mxCell>
        <mxCell id="iDYnWV1wgMR3_WhEjttm-8" style="edgeStyle=orthogonalEdgeStyle;rounded=0;orthogonalLoop=1;jettySize=auto;html=1;exitX=0.5;exitY=1;exitDx=0;exitDy=0;" edge="1" parent="1" source="iDYnWV1wgMR3_WhEjttm-2" target="iDYnWV1wgMR3_WhEjttm-3">
          <mxGeometry relative="1" as="geometry" />
        </mxCell>
        <mxCell id="iDYnWV1wgMR3_WhEjttm-2" value="Nhap so tu nhien co 3 chu so" style="shape=parallelogram;perimeter=parallelogramPerimeter;whiteSpace=wrap;html=1;fixedSize=1;" vertex="1" parent="1">
          <mxGeometry x="265" y="190" width="190" height="60" as="geometry" />
        </mxCell>
        <mxCell id="iDYnWV1wgMR3_WhEjttm-9" style="edgeStyle=orthogonalEdgeStyle;rounded=0;orthogonalLoop=1;jettySize=auto;html=1;exitX=0.5;exitY=1;exitDx=0;exitDy=0;entryX=0.5;entryY=0;entryDx=0;entryDy=0;" edge="1" parent="1" source="iDYnWV1wgMR3_WhEjttm-3" target="iDYnWV1wgMR3_WhEjttm-4">
          <mxGeometry relative="1" as="geometry" />
        </mxCell>
        <mxCell id="iDYnWV1wgMR3_WhEjttm-3" value="Gan A= so/100&lt;br&gt;Gan B=(so chia 100 lay du)/10&lt;br&gt;Gan C=so chia 10 lay du" style="rounded=0;whiteSpace=wrap;html=1;" vertex="1" parent="1">
          <mxGeometry x="245" y="300" width="230" height="60" as="geometry" />
        </mxCell>
        <mxCell id="iDYnWV1wgMR3_WhEjttm-10" style="edgeStyle=orthogonalEdgeStyle;rounded=0;orthogonalLoop=1;jettySize=auto;html=1;exitX=0.5;exitY=1;exitDx=0;exitDy=0;entryX=0.5;entryY=0;entryDx=0;entryDy=0;" edge="1" parent="1" source="iDYnWV1wgMR3_WhEjttm-4" target="iDYnWV1wgMR3_WhEjttm-5">
          <mxGeometry relative="1" as="geometry" />
        </mxCell>
        <mxCell id="iDYnWV1wgMR3_WhEjttm-4" value="Tinh so dao nguoc&lt;br&gt;=C*100+B*10+A" style="shape=parallelogram;perimeter=parallelogramPerimeter;whiteSpace=wrap;html=1;fixedSize=1;" vertex="1" parent="1">
          <mxGeometry x="290" y="440" width="140" height="60" as="geometry" />
        </mxCell>
        <mxCell id="iDYnWV1wgMR3_WhEjttm-11" style="edgeStyle=orthogonalEdgeStyle;rounded=0;orthogonalLoop=1;jettySize=auto;html=1;exitX=0.5;exitY=1;exitDx=0;exitDy=0;entryX=0.5;entryY=0;entryDx=0;entryDy=0;" edge="1" parent="1" source="iDYnWV1wgMR3_WhEjttm-5" target="iDYnWV1wgMR3_WhEjttm-6">
          <mxGeometry relative="1" as="geometry" />
        </mxCell>
        <mxCell id="iDYnWV1wgMR3_WhEjttm-5" value="Lay so nghich dao" style="rounded=0;whiteSpace=wrap;html=1;" vertex="1" parent="1">
          <mxGeometry x="300" y="560" width="120" height="60" as="geometry" />
        </mxCell>
        <mxCell id="iDYnWV1wgMR3_WhEjttm-6" value="End" style="ellipse;whiteSpace=wrap;html=1;" vertex="1" parent="1">
          <mxGeometry x="300" y="660" width="120" height="80" as="geometry" />
        </mxCell>
      </root>
    </mxGraphModel>
  </diagram>
  <diagram id="aQEqdjvbc9cb3W9hZW1j" name="Trang-5">
    <mxGraphModel dx="910" dy="499" grid="1" gridSize="10" guides="1" tooltips="1" connect="1" arrows="1" fold="1" page="1" pageScale="1" pageWidth="827" pageHeight="1169" math="0" shadow="0">
      <root>
        <mxCell id="0" />
        <mxCell id="1" parent="0" />
      </root>
    </mxGraphModel>
  </diagram>
</mxfile>
